<svg width="443" height="48" viewBox="0 0 443 48" fill="none" xmlns="http://www.w3.org/2000/svg">
<g clip-path="url(#clip0_51_497)">
<path d="M25.9505 38.3669C27.6245 38.1457 29.562 38.7954 30.4567 40.3079C32.8415 44.342 29.5318 49.2526 24.9268 47.5245C20.7225 45.9484 21.3674 38.9752 25.9505 38.3669ZM25.9368 40.283C23.4504 40.8498 23.9965 47.0212 27.4791 45.9622C29.5895 45.3208 29.702 39.4258 25.9368 40.283Z" fill="#B4B4B4"/>
<path d="M58.8113 38.3586C61.1578 37.9577 63.7512 39.6001 64.0723 42.0332C64.5909 45.965 61.6627 48.9761 57.7932 47.5245C53.7096 45.9927 54.2228 39.1438 58.8113 38.3586ZM61.0068 45.6609C62.3598 44.4526 62.239 40.5318 60.1067 40.2332C58.8196 40.0535 58.0484 40.3134 57.5983 41.5411C56.8272 43.6452 57.4803 46.3024 60.1067 45.9899C60.3921 45.9567 60.7928 45.8489 61.0068 45.6581V45.6609Z" fill="#B4B4B4"/>
<path d="M21.0904 37.471C18.6863 36.6166 15.7636 36.2876 14.6521 39.1189C12.9836 43.3659 16.5951 47.5964 20.934 45.4729L21.6393 47.1097C16.2494 49.2526 11.3672 46.2166 12.0752 40.1116C12.3908 37.3936 14.6521 35.165 17.38 34.9798C18.3927 34.9107 20.5058 35.154 21.3676 35.6765C21.8862 35.9918 20.8544 36.9346 21.0904 37.471Z" fill="#B4B4B4"/>
<path d="M40.5369 47.6628H38.6186V41.4637C38.6186 41.2785 37.9188 40.3605 37.6141 40.272C36.7606 40.0204 35.6272 40.2803 34.7847 40.5015V47.6656H32.5947V39.1245C34.7957 38.6932 37.3452 37.5402 39.4309 38.9973C39.7053 39.1881 40.5369 40.1393 40.5369 40.366V47.6656V47.6628Z" fill="#B4B4B4"/>
<path d="M45.194 46.0092C46.8159 46.5456 47.9631 45.1134 48.2073 47.6627C41.931 49.2995 43.0068 44.6737 43.004 40.2249H41.9036L42.0243 38.8286L43.0205 38.4166L43.0013 36.094H45.194V38.5769H47.6612V40.0756L45.194 40.2276V46.012V46.0092Z" fill="#B4B4B4"/>
<path d="M75.3186 38.848L74.7698 40.5014C74.0151 40.2305 71.4546 39.4867 71.4683 40.9134C71.482 42.3401 75.2171 42.1272 75.5821 44.5051C76.1364 48.1383 71.7455 48.2904 69.2975 47.3835L69.5692 45.7355C70.9661 45.9567 73.0326 47.06 73.4003 45.0388C73.3674 43.6563 69.5692 43.6894 69.292 41.1706C68.9792 38.3254 73.3592 37.7807 75.3186 38.8507V38.848Z" fill="#B4B4B4"/>
<path d="M67.6537 34.1641H65.7354V47.6627H67.6537V34.1641Z" fill="#B4B4B4"/>
<path d="M49.3022 39.1217C50.5756 39.0001 53.3913 37.6978 54.5165 38.4222C55.0873 38.7899 54.4671 39.6775 54.4836 40.2028L51.4922 40.2249V47.6627H49.3022V39.1217Z" fill="#B4B4B4"/>
<path d="M94.4741 0.290271C94.6525 0.406401 95.635 3.78797 95.7859 4.34926C98.1049 12.9262 98.1845 24.2571 92.6903 31.6645C92.339 32.14 90.4043 34.2884 89.9871 34.341C88.8537 34.1944 87.7642 33.9069 86.6582 33.6331C86.3152 33.5474 86.1972 33.7603 86.285 33.2101C87.487 31.5649 88.8592 30.0663 89.8856 28.2884C93.1047 22.7059 93.8265 16.3658 94.2216 10.0617L93.67 0.273682L94.4741 0.287507V0.290271Z" fill="#B4B4B4"/>
<path d="M90.6568 0C91.019 2.46636 91.8698 5.07373 92.0399 7.56498C92.6684 16.6894 90.6952 26.4277 82.6241 31.6535L80.2529 29.8949C84.7838 25.8664 87.3718 20.2341 88.6095 14.3364C89.5974 9.62765 89.8472 4.80553 89.8362 0.00276498H90.6568V0Z" fill="#B4B4B4"/>
<path d="M86.8227 0.82959C88.4501 9.35678 86.938 20.4416 79.8356 26.1734C79.542 26.4112 77.9996 27.5061 77.7993 27.2683L76.6714 24.9512C83.4719 19.1724 85.5109 9.90424 86.0378 1.28305L86.82 0.832355L86.8227 0.82959Z" fill="#B4B4B4"/>
<path d="M106.815 8.54377L107.049 9.46727C102.526 14.7539 101.821 22.1226 105.111 28.247L103.939 29.4802C99.0571 25.0866 98.1707 17.3862 102.317 12.1465C102.751 11.5991 106.286 7.99077 106.815 8.54377Z" fill="#B4B4B4"/>
<path d="M83.2634 2.48011V8.12896C83.2634 8.79532 82.5444 11.2976 82.3056 12.1271C81.1694 16.0893 78.9712 19.811 75.4557 22.0423C75.1209 21.2764 74.7998 20.0654 75.1868 19.2912C77.8982 16.0672 79.929 12.2902 81.2106 8.26997C81.743 6.59993 82.0065 4.61467 82.5883 3.03034C82.7584 2.56582 82.5883 2.36675 83.2606 2.48011H83.2634Z" fill="#B4B4B4"/>
<path d="M106.546 25.6231C104.916 21.7107 105.246 16.272 108.734 13.5015C109.222 16.9715 109.115 20.4167 107.776 23.6932C107.521 24.3208 107.139 25.2941 106.546 25.6231Z" fill="#B4B4B4"/>
<path d="M98.0555 23.1455L99.3728 26.9169C99.735 27.8017 101.516 30.6109 101.585 31.0423C101.653 31.4736 100.901 32.0238 100.539 32.1179C99.7899 32.3142 97.0236 29.1593 96.5378 28.4045L98.0555 23.1483V23.1455Z" fill="#B4B4B4"/>
<path d="M99.1476 13.2249C98.7689 13.2471 98.7332 12.2378 98.6756 11.9116C98.5274 11.0738 98.1377 8.92264 98.467 8.26458C98.8265 7.54568 102.229 5.2314 103.072 4.89407C103.322 4.79453 103.522 4.59269 103.807 4.80559L104.354 5.37241C101.988 7.36319 99.9325 10.1918 99.1503 13.2222L99.1476 13.2249Z" fill="#B4B4B4"/>
<path d="M74.7751 15.705C75.2389 11.8783 76.8334 7.84695 79.7013 5.23682C79.1908 9.03866 77.6402 13.1198 74.7751 15.705Z" fill="#B4B4B4"/>
<path d="M97.5038 33.6111C96.203 33.9402 94.8116 34.2084 94.0706 32.7872C93.6535 31.9881 94.7896 31.2775 95.1739 30.5835L97.5011 33.6084L97.5038 33.6111Z" fill="#B4B4B4"/>
<path d="M97.7754 5.2368C96.9988 4.88289 97.1277 3.71883 96.6804 3.03588C97.6629 2.96952 98.8814 1.66169 99.8282 1.93266C99.9654 1.97137 100.259 2.22851 100.108 2.48289C99.5812 3.37044 97.9565 4.08381 97.7754 5.2368Z" fill="#B4B4B4"/>
<path d="M19.172 17.0821V21.766C20.9805 21.5254 23.8456 20.6102 24.7732 22.883C24.85 23.0683 25.1985 24.307 25.1985 24.3844V30.5835H23.0086V24.1079C23.0086 24.0499 22.3142 23.3448 22.188 23.2812C21.1561 22.7586 20.149 23.4167 19.1747 23.6932V30.5807H17.2564C17.1219 26.9724 17.4348 23.2922 17.2701 19.684C17.2345 18.9153 16.5374 17.4028 17.4293 17.1153L19.1747 17.0793L19.172 17.0821Z" fill="#B4B4B4"/>
<path d="M7.75284 29.671C6.1721 28.0701 6.01293 24.7742 7.39608 23.0046C10.5823 18.9235 17.2346 22.5899 15.201 28.1005C14.1335 30.9927 9.85776 31.8028 7.75284 29.671ZM10.327 23.1982C8.3319 23.6434 8.14528 27.9014 10.0608 28.8664C13.7081 30.7051 14.729 22.2139 10.327 23.1982Z" fill="#B4B4B4"/>
<path d="M48.4185 21.2682C49.0332 21.2018 49.8209 21.4147 50.3944 21.6304C55.2849 23.4774 53.545 32.0074 47.6419 30.7327C42.5566 29.635 43.0643 21.8488 48.4185 21.2654V21.2682ZM47.1698 28.5926C47.34 28.7585 48.5612 29.1511 48.8439 29.1346C51.8297 28.9687 51.827 22.3604 48.1221 23.1954C46.1188 23.6488 46.116 27.564 47.1698 28.5899V28.5926Z" fill="#B4B4B4"/>
<path d="M35.059 30.5834H32.869V24.1078C32.869 24.0498 32.1747 23.3475 32.0485 23.2811C31.2554 22.8802 30.0835 23.2286 29.2959 23.5548L29.0873 23.8286C29.0956 23.9613 29.3096 24.047 29.3096 24.1051V30.5806H27.1196V22.0396C29.3206 21.6166 32.7346 20.4553 34.3894 22.5788C34.565 22.8028 35.0618 23.6571 35.0618 23.8313V30.5806L35.059 30.5834Z" fill="#B4B4B4"/>
<path d="M62.722 30.5835H60.8037V24.6609C60.8037 24.5945 60.2411 23.53 60.1944 23.483C59.5331 22.8001 57.8178 23.3005 56.9671 23.4194V30.5835H54.7771V22.0425C56.9067 21.6416 60.027 20.6268 61.8904 22.1863C62.1759 22.424 62.7192 23.2895 62.7192 23.5577V30.5835H62.722Z" fill="#B4B4B4"/>
<path d="M42.4523 21.7716L42.1806 23.4195L39.3402 23.1789C37.8198 24.7273 40.2897 25.0729 41.2749 25.5679C44.2059 27.0388 43.2454 30.4259 40.1113 30.8351C38.7803 31.0093 37.6826 30.625 36.4312 30.3015L36.98 28.6508C37.9899 29.0434 40.6574 29.8232 40.7453 28.1946C40.8111 26.9974 38.8434 26.7126 37.979 26.1292C36.7248 25.2803 36.2253 23.9504 37.1282 22.6038C38.1738 21.0471 40.877 21.166 42.4523 21.7688V21.7716Z" fill="#B4B4B4"/>
<path d="M4.93159 18.1854V28.7918C4.93159 28.8693 4.58032 30.1218 4.50896 30.2932C3.86679 31.8057 1.83871 32.5881 0.279923 32.5052L0 30.8573C0.831537 30.9181 2.73886 29.9199 2.73886 29.0656V18.1826H4.92885L4.93159 18.1854Z" fill="#B4B4B4"/>
</g>
<g clip-path="url(#clip1_51_497)">
<path fill-rule="evenodd" clip-rule="evenodd" d="M258.424 35.5551H263.514V18H258.424V35.5551Z" fill="#B4B4B4"/>
<path fill-rule="evenodd" clip-rule="evenodd" d="M271 18V35.5551H265.91V18H271Z" fill="#B4B4B4"/>
<path fill-rule="evenodd" clip-rule="evenodd" d="M147.854 24.8184H143.737V18H137V35.5551H143.737V26.8504H147.854V35.5551H154.592V18H147.854V24.8184Z" fill="#B4B4B4"/>
<path fill-rule="evenodd" clip-rule="evenodd" d="M179.483 24.5282L179.071 23.3679H173.531V35.555H179.071V28.2282C179.071 26.632 180.12 25.7618 181.018 25.7618C181.766 25.7618 182.739 25.9068 182.739 27.503V35.555H188.279V27.6481C188.279 23.2229 183.152 21.4823 179.483 24.5282Z" fill="#B4B4B4"/>
<path fill-rule="evenodd" clip-rule="evenodd" d="M236.377 30.4406L233.795 23.3679H230.014L227.431 30.7307L224.736 23.3679H219.459H219.421H217.325L214.667 29.5696L210.925 23.3679H204.599L212.047 35.7L211.074 38.0207C210.737 38.7466 209.931 38.7826 209.773 38.0933C209.773 36.8469 208.73 35.837 207.443 35.837C206.157 35.837 205.114 36.8469 205.114 38.0933C205.123 39.3993 206.47 41.1039 209.128 40.9949C211.786 40.8864 212.908 38.7466 213.283 37.8398L219.438 23.4154L223.876 35.5551H227.918L230.388 28.5543L232.934 35.5551H236.751L241.056 23.3679H238.848L236.377 30.4406Z" fill="#B4B4B4"/>
<path fill-rule="evenodd" clip-rule="evenodd" d="M164.136 22.7485C159.898 22.7485 156.462 25.8026 156.462 29.5698C156.462 33.3382 159.898 36.3923 164.136 36.3923C168.376 36.3923 171.812 33.3382 171.812 29.5698C171.812 25.8026 168.376 22.7485 164.136 22.7485ZM166.046 32.7613C166.046 33.7834 165.191 34.6117 164.136 34.6117C163.083 34.6117 162.228 33.7834 162.228 32.7613V26.3788C162.228 25.3574 163.083 24.5299 164.136 24.5299C165.191 24.5299 166.046 25.3574 166.046 26.3788V32.7613Z" fill="#B4B4B4"/>
<path fill-rule="evenodd" clip-rule="evenodd" d="M205.214 30.5492C205.254 30.2637 205.275 29.8653 205.275 29.5698C205.275 25.8026 201.839 22.7485 197.6 22.7485C193.361 22.7485 189.924 25.8026 189.924 29.5698C189.924 33.3382 193.361 36.3923 197.6 36.3923C200.513 36.3923 203.046 34.9499 204.347 32.8251L202.651 32.2172C201.627 33.7346 199.748 34.7507 197.6 34.7507C196.545 34.7507 195.69 33.7834 195.69 32.7613V30.5498L205.214 30.5492ZM195.69 26.3788C195.69 25.3574 196.545 24.5299 197.6 24.5299C198.654 24.5299 199.509 25.3574 199.509 26.3788V28.8086H195.69V26.3788Z" fill="#B4B4B4"/>
<path fill-rule="evenodd" clip-rule="evenodd" d="M256.492 30.5492C256.534 30.2637 256.555 29.8653 256.555 29.5698C256.555 25.8026 253.118 22.7485 248.879 22.7485C244.64 22.7485 241.204 25.8026 241.204 29.5698C241.204 33.3382 244.64 36.3923 248.879 36.3923C251.792 36.3923 254.325 34.9499 255.626 32.8251L253.931 32.2172C252.906 33.7346 251.028 34.7507 248.879 34.7507C247.825 34.7507 246.97 33.7834 246.97 32.7613V30.5498L256.492 30.5492ZM246.97 26.3788C246.97 25.3574 247.825 24.5299 248.879 24.5299C249.934 24.5299 250.788 25.3574 250.788 26.3788V28.8086H246.97V26.3788Z" fill="#B4B4B4"/>
</g>
<g clip-path="url(#clip2_51_497)">
<path d="M341.721 27.5518C341.943 27.6239 342.358 28.9735 342.296 27.5518H348.306C348.334 27.5518 348.285 28.0053 348.31 28.1333C348.35 28.3388 348.551 28.6508 348.57 28.9041H332.44C332.214 28.9041 330.382 27.9638 330.122 27.7582C330.047 27.6996 329.962 27.7609 330.01 27.5518H341.72H341.721Z" fill="#B4B4B4"/>
<path d="M322.057 26.2894L321.969 25.1183C324.547 25.0876 327.128 25.1561 329.706 25.1219C331.688 25.0957 333.726 24.9659 335.709 24.9344C337.124 24.9118 338.434 24.7604 339.66 25.579L340.529 26.2903H328.554C328.299 26.2903 327.801 24.6612 327.891 26.2903H322.058L322.057 26.2894Z" fill="#B4B4B4"/>
<path d="M313.224 27.5518H307.21V28.9041H313.224V27.5518Z" fill="#B4B4B4"/>
<path d="M327.89 27.5518C327.94 27.6022 327.95 28.9041 327.669 28.9041H322.013C321.755 28.9041 321.988 27.5518 322.057 27.5518H327.89Z" fill="#B4B4B4"/>
<path d="M348.571 25.1174C348.593 25.5457 348.245 25.8684 348.306 26.2895H342.296C342.22 26.1416 342.413 25.1174 342.473 25.1174H348.571Z" fill="#B4B4B4"/>
<path d="M313.22 25.1174H307.21V26.2895H313.22V25.1174Z" fill="#B4B4B4"/>
<path d="M365.982 29.9861C366.101 30.106 365.595 31.4548 365.495 31.6973C364.628 33.8034 363.116 35.4767 361.276 36.7506C356.388 40.136 350.405 39.5644 345.957 35.6282C344.843 34.6418 343.991 33.2841 343.312 31.9687C343.113 31.9344 343.187 32.057 343.18 32.1931C343.033 35.1377 341.52 37.1284 338.922 38.2914C336.433 39.4058 334.542 39.175 332.207 37.819C332.136 37.7775 332.126 37.6684 332.072 37.6531C331.541 37.5061 331.863 38.2806 331.78 38.2806H327.494C327.378 38.2806 326.832 37.6161 326.832 37.5143V32.4203C326.634 32.5024 326.636 32.8486 326.533 33.0199C325.442 34.8501 323.487 36.738 321.605 37.5963C321.224 37.7703 319.312 38.4618 319.009 38.4618H305V34.54C305 34.3335 305.435 33.761 305.601 33.6916C305.96 33.541 307.209 33.7655 307.209 33.5482V30.1673H313.307V33.1425H317.506C318.589 33.1425 320.971 31.7433 321.364 30.674C321.415 30.536 321.414 30.1673 321.439 30.1673H327.448C327.562 30.353 327.085 31.0689 327.404 31.0689H331.204C331.253 31.0689 331.941 31.4728 332.049 31.562C332.522 31.9587 332.869 32.927 333.307 33.3868C333.407 33.4914 334.004 33.8602 334.162 33.9125C335.041 34.201 335.994 34.1937 336.633 33.431C337.129 32.8387 337.336 32.0327 336.817 31.3871C336.412 30.8823 335.711 30.5847 335.225 30.1673H349.145C349.223 30.1673 349.95 31.2104 350.156 31.3871C352.608 33.4968 355.999 33.6402 358.488 31.5188C359.079 31.0157 359.119 30.4892 359.956 30.1952C360.046 30.1637 360.683 29.9861 360.723 29.9861H365.981H365.982Z" fill="#B4B4B4"/>
<path d="M318.831 15.4705C321.792 15.8149 324.546 17.9526 326.195 20.3995C326.393 20.6934 326.489 21.1442 326.829 21.3308C326.842 21.173 326.801 20.9918 326.834 20.8394C327.752 16.5434 331.754 14.1146 335.968 15.2992C336.543 15.4615 336.979 15.8294 337.524 15.9213V15.2001H341.456C341.631 15.2001 342.296 15.6788 342.296 15.7861V22.1422H337.391C337.039 22.1422 336.677 21.0369 336.522 20.7745C335.582 19.1868 332.408 19.8991 332.659 21.9213C332.709 22.3288 333.043 22.5416 333.129 22.9302C333.546 23.1853 333.971 23.4774 334.446 23.5956L334.783 23.8543L327.576 23.8597C326.114 23.6028 324.341 23.7164 322.804 23.7614C322.519 23.7696 321.859 23.9706 321.632 23.8363C321.558 23.7921 320.861 22.5344 320.703 22.3505C320.129 21.9556 319.658 21.5129 319.008 21.2397C318.845 21.1712 317.835 20.7898 317.77 20.7898H313.218V23.72C313.218 24.0157 312.147 23.7678 311.941 23.7614C310.362 23.7128 308.784 23.7542 307.209 23.6749V20.3391H305.927C305.692 20.3391 304.999 19.9252 304.999 19.6629V15.4705H318.83H318.831Z" fill="#B4B4B4"/>
<path d="M364.347 15.2002C364.879 15.2588 365.157 15.6167 365.279 16.1433L365.231 23.676L365.036 23.8373C363.433 23.7012 360.984 24.1917 359.511 23.5777C359.32 23.4974 358.731 22.7122 358.487 22.5048C357.603 21.7511 356.196 21.1443 355.059 20.9793C352.62 20.6241 350.522 21.9458 349.128 23.8572C346.998 23.7418 344.867 23.7427 342.738 23.6751C342.666 23.6047 343.253 21.9404 343.344 21.7285C345.847 15.9395 353.587 13.2907 359.1 16.3849C359.355 16.5282 359.663 16.8943 359.948 16.988C360.03 17.0151 360.324 16.8474 360.324 16.824V15.2002C361.607 15.303 363.087 15.0623 364.346 15.2002H364.347Z" fill="#B4B4B4"/>
</g>
<g clip-path="url(#clip3_51_497)">
<path d="M443 12V17.1557H428.306V21.5233H434.112V37.2859H438.459V21.5233H443V43H402V37.2532H406.574L407.745 34.7115L407.853 34.657L415.181 34.6632L416.369 37.1874H421.43L411.747 17.2211L402 36.7606V12H443ZM427.593 22.2457V18.1244C426.5 17.3799 425.148 17.1059 423.848 16.9899L417.862 16.9916V28.0419L422.288 37.1885L422.385 37.2222C423.261 37.156 424.249 37.3048 425.111 37.2201C425.973 37.1353 427.454 36.4287 428.186 35.9988C432.017 33.752 433.426 29.706 432.81 25.3545C432.655 24.2655 432.354 23.1993 431.809 22.2457H427.593H427.593ZM442.211 24.0475C442.211 23.1985 441.531 22.5103 440.692 22.5103C439.854 22.5103 439.174 23.1985 439.174 24.0475C439.174 24.8964 439.854 25.5846 440.692 25.5846C441.531 25.5846 442.211 24.8964 442.211 24.0475Z" fill="#B4B4B4"/>
<path d="M441.914 24.0469C441.914 24.7281 441.368 25.2803 440.696 25.2803C440.023 25.2803 439.477 24.728 439.477 24.0469C439.477 23.3658 440.023 22.8135 440.696 22.8135C441.368 22.8135 441.914 23.3658 441.914 24.0469ZM440.94 23.1654C440.689 23.1312 440.372 23.1905 440.113 23.1654V24.9387H440.405V24.1834C440.497 24.19 440.606 24.1576 440.683 24.2139C440.805 24.3028 441.022 24.8627 441.118 24.9228C441.189 24.967 441.355 24.9249 441.443 24.9386L440.957 24.1668C441.568 24.0861 441.569 23.2508 440.94 23.1654Z" fill="#B4B4B4"/>
<path d="M440.908 23.428C440.921 23.4306 441.063 23.5137 441.07 23.5259C441.134 23.6571 441.068 23.9205 440.908 23.9205H440.405V23.428C440.555 23.4483 440.768 23.3999 440.908 23.428Z" fill="#B4B4B4"/>
<path d="M413.223 30.6852H409.72L411.423 27.0081L413.223 30.6852Z" fill="#B4B4B4"/>
<path d="M427.32 31.0343C426.046 32.5244 424.051 33.1101 422.145 32.9498L422.11 21.3918C423.026 21.4162 423.988 21.5032 424.868 21.7692C428.72 22.9331 429.861 28.0625 427.32 31.0343H427.32Z" fill="#B4B4B4"/>
</g>
<defs>
<clipPath id="clip0_51_497">
<rect width="109" height="48" fill="white"/>
</clipPath>
<clipPath id="clip1_51_497">
<rect width="134" height="23" fill="white" transform="translate(137 18)"/>
</clipPath>
<clipPath id="clip2_51_497">
<rect width="61" height="24" fill="white" transform="translate(305 15)"/>
</clipPath>
<clipPath id="clip3_51_497">
<rect width="41" height="31" fill="white" transform="translate(402 12)"/>
</clipPath>
</defs>
</svg>
