<svg width="480" height="33" viewBox="0 0 480 33" fill="none" xmlns="http://www.w3.org/2000/svg">
<g clip-path="url(#clip0_51_497)">
<path fill-rule="evenodd" clip-rule="evenodd" d="M121.424 26.5551H126.514V9H121.424V26.5551Z" fill="#B4B4B4"/>
<path fill-rule="evenodd" clip-rule="evenodd" d="M134 9V26.5551H128.91V9H134Z" fill="#B4B4B4"/>
<path fill-rule="evenodd" clip-rule="evenodd" d="M10.8543 15.8184H6.73718V9H0V26.5551H6.73718V17.8504H10.8543V26.5551H17.5921V9H10.8543V15.8184Z" fill="#B4B4B4"/>
<path fill-rule="evenodd" clip-rule="evenodd" d="M42.4833 15.5282L42.0712 14.3679H36.5315V26.555H42.0712V19.2282C42.0712 17.632 43.1197 16.7618 44.0179 16.7618C44.7663 16.7618 45.7392 16.9068 45.7392 18.503V26.555H51.279V18.6481C51.279 14.2229 46.152 12.4823 42.4833 15.5282Z" fill="#B4B4B4"/>
<path fill-rule="evenodd" clip-rule="evenodd" d="M99.3774 21.4406L96.7948 14.3679H93.0143L90.4312 21.7307L87.7361 14.3679H82.4587H82.4209H80.3254L77.6674 20.5696L73.9245 14.3679H67.5986L75.0473 26.7L74.0743 29.0207C73.7371 29.7466 72.9306 29.7826 72.7727 29.0933C72.7727 27.8469 71.7296 26.837 70.4434 26.837C69.157 26.837 68.1142 27.8469 68.1142 29.0933C68.1232 30.3993 69.4705 32.1039 72.1277 31.9949C74.7857 31.8864 75.9082 29.7466 76.2825 28.8398L82.4385 14.4154L86.8758 26.5551H90.9181L93.3884 19.5543L95.9339 26.5551H99.7515L104.056 14.3679H101.848L99.3774 21.4406Z" fill="#B4B4B4"/>
<path fill-rule="evenodd" clip-rule="evenodd" d="M27.1363 13.7485C22.8976 13.7485 19.4619 16.8026 19.4619 20.5698C19.4619 24.3382 22.8976 27.3923 27.1363 27.3923C31.3758 27.3923 34.8123 24.3382 34.8123 20.5698C34.8123 16.8026 31.3758 13.7485 27.1363 13.7485ZM29.0459 23.7613C29.0459 24.7834 28.1911 25.6117 27.1363 25.6117C26.083 25.6117 25.2282 24.7834 25.2282 23.7613V17.3788C25.2282 16.3574 26.083 15.5299 27.1363 15.5299C28.1911 15.5299 29.0459 16.3574 29.0459 17.3788V23.7613Z" fill="#B4B4B4"/>
<path fill-rule="evenodd" clip-rule="evenodd" d="M68.2137 21.5492C68.2542 21.2637 68.2751 20.8653 68.2751 20.5698C68.2751 16.8026 64.8387 13.7485 60.6 13.7485C56.3605 13.7485 52.9241 16.8026 52.9241 20.5698C52.9241 24.3382 56.3605 27.3923 60.6 27.3923C63.5125 27.3923 66.046 25.9499 67.3469 23.8251L65.6515 23.2172C64.6268 24.7346 62.748 25.7507 60.6 25.7507C59.5452 25.7507 58.6904 24.7834 58.6904 23.7613V21.5498L68.2137 21.5492ZM58.6904 17.3788C58.6904 16.3574 59.5452 15.5299 60.6 15.5299C61.654 15.5299 62.5088 16.3574 62.5088 17.3788V19.8086H58.6904V17.3788Z" fill="#B4B4B4"/>
<path fill-rule="evenodd" clip-rule="evenodd" d="M119.492 21.5492C119.534 21.2637 119.555 20.8653 119.555 20.5698C119.555 16.8026 116.118 13.7485 111.879 13.7485C107.64 13.7485 104.204 16.8026 104.204 20.5698C104.204 24.3382 107.64 27.3923 111.879 27.3923C114.792 27.3923 117.325 25.9499 118.626 23.8251L116.931 23.2172C115.906 24.7346 114.028 25.7507 111.879 25.7507C110.825 25.7507 109.97 24.7834 109.97 23.7613V21.5498L119.492 21.5492ZM109.97 17.3788C109.97 16.3574 110.825 15.5299 111.879 15.5299C112.934 15.5299 113.788 16.3574 113.788 17.3788V19.8086H109.97V17.3788Z" fill="#B4B4B4"/>
</g>
<g clip-path="url(#clip1_51_497)">
<path d="M311.721 19.5518C311.943 19.6239 312.358 20.9735 312.296 19.5518H318.306C318.334 19.5518 318.285 20.0053 318.31 20.1333C318.35 20.3388 318.551 20.6508 318.57 20.9041H302.44C302.214 20.9041 300.382 19.9638 300.122 19.7582C300.047 19.6996 299.962 19.7609 300.01 19.5518H311.72H311.721Z" fill="#B4B4B4"/>
<path d="M292.057 18.2894L291.969 17.1183C294.547 17.0876 297.128 17.1561 299.706 17.1219C301.688 17.0957 303.726 16.9659 305.709 16.9344C307.124 16.9118 308.434 16.7604 309.66 17.579L310.529 18.2903H298.554C298.299 18.2903 297.801 16.6612 297.891 18.2903H292.058L292.057 18.2894Z" fill="#B4B4B4"/>
<path d="M283.224 19.5518H277.21V20.9041H283.224V19.5518Z" fill="#B4B4B4"/>
<path d="M297.89 19.5518C297.94 19.6022 297.95 20.9041 297.669 20.9041H292.013C291.755 20.9041 291.988 19.5518 292.057 19.5518H297.89Z" fill="#B4B4B4"/>
<path d="M318.571 17.1174C318.593 17.5457 318.245 17.8684 318.306 18.2895H312.296C312.22 18.1416 312.413 17.1174 312.473 17.1174H318.571Z" fill="#B4B4B4"/>
<path d="M283.22 17.1174H277.21V18.2895H283.22V17.1174Z" fill="#B4B4B4"/>
<path d="M335.982 21.9861C336.101 22.106 335.595 23.4548 335.495 23.6973C334.628 25.8034 333.116 27.4767 331.276 28.7506C326.388 32.136 320.405 31.5644 315.957 27.6282C314.843 26.6418 313.991 25.2841 313.312 23.9687C313.113 23.9344 313.187 24.057 313.18 24.1931C313.033 27.1377 311.52 29.1284 308.922 30.2914C306.433 31.4058 304.542 31.175 302.207 29.819C302.136 29.7775 302.126 29.6684 302.072 29.6531C301.541 29.5061 301.863 30.2806 301.78 30.2806H297.494C297.378 30.2806 296.832 29.6161 296.832 29.5143V24.4203C296.634 24.5024 296.636 24.8486 296.533 25.0199C295.442 26.8501 293.487 28.738 291.605 29.5963C291.224 29.7703 289.312 30.4618 289.009 30.4618H275V26.54C275 26.3335 275.435 25.761 275.601 25.6916C275.96 25.541 277.209 25.7655 277.209 25.5482V22.1673H283.307V25.1425H287.506C288.589 25.1425 290.971 23.7433 291.364 22.674C291.415 22.536 291.414 22.1673 291.439 22.1673H297.448C297.562 22.353 297.085 23.0689 297.404 23.0689H301.204C301.253 23.0689 301.941 23.4728 302.049 23.562C302.522 23.9587 302.869 24.927 303.307 25.3868C303.407 25.4914 304.004 25.8602 304.162 25.9125C305.041 26.201 305.994 26.1937 306.633 25.431C307.129 24.8387 307.336 24.0327 306.817 23.3871C306.412 22.8823 305.711 22.5847 305.225 22.1673H319.145C319.223 22.1673 319.95 23.2104 320.156 23.3871C322.608 25.4968 325.999 25.6402 328.488 23.5188C329.079 23.0157 329.119 22.4892 329.956 22.1952C330.046 22.1637 330.683 21.9861 330.723 21.9861H335.981H335.982Z" fill="#B4B4B4"/>
<path d="M288.831 7.47054C291.792 7.81494 294.546 9.95258 296.195 12.3995C296.393 12.6934 296.489 13.1442 296.829 13.3308C296.842 13.173 296.801 12.9918 296.834 12.8394C297.752 8.54341 301.754 6.11456 305.968 7.29924C306.543 7.46152 306.979 7.82936 307.524 7.92132V7.20006H311.456C311.631 7.20006 312.296 7.6788 312.296 7.78609V14.1422H307.391C307.039 14.1422 306.677 13.0369 306.522 12.7745C305.582 11.1868 302.408 11.8991 302.659 13.9213C302.709 14.3288 303.043 14.5416 303.129 14.9302C303.546 15.1853 303.971 15.4774 304.446 15.5956L304.783 15.8543L297.576 15.8597C296.114 15.6028 294.341 15.7164 292.804 15.7614C292.519 15.7696 291.859 15.9706 291.632 15.8363C291.558 15.7921 290.861 14.5344 290.703 14.3505C290.129 13.9556 289.658 13.5129 289.008 13.2397C288.845 13.1712 287.835 12.7898 287.77 12.7898H283.218V15.72C283.218 16.0157 282.147 15.7678 281.941 15.7614C280.362 15.7128 278.784 15.7542 277.209 15.6749V12.3391H275.927C275.692 12.3391 274.999 11.9252 274.999 11.6629V7.47054H288.83H288.831Z" fill="#B4B4B4"/>
<path d="M334.347 7.20022C334.879 7.25882 335.157 7.61675 335.279 8.14327L335.231 15.676L335.036 15.8373C333.433 15.7012 330.984 16.1917 329.511 15.5777C329.32 15.4974 328.731 14.7122 328.487 14.5048C327.603 13.7511 326.196 13.1443 325.059 12.9793C322.62 12.6241 320.522 13.9458 319.128 15.8572C316.998 15.7418 314.867 15.7427 312.738 15.6751C312.666 15.6047 313.253 13.9404 313.344 13.7285C315.847 7.93951 323.587 5.29068 329.1 8.38489C329.355 8.52824 329.663 8.89428 329.948 8.98805C330.03 9.0151 330.324 8.8474 330.324 8.82396V7.20022C331.607 7.303 333.087 7.06228 334.346 7.20022H334.347Z" fill="#B4B4B4"/>
</g>
<g clip-path="url(#clip2_51_497)">
<path d="M217.532 30.0811H191.766L191.633 29.948V24.5517L191.766 24.4186H200.325V22.9143H191.544V21.6317C191.544 21.6034 191.663 21.4978 191.633 21.4109H198.551V19.9953H191.677C191.459 19.6502 191.461 18.8254 191.677 18.491H196.689V16.9867H191.677C191.459 16.6416 191.461 15.8167 191.677 15.4823H194.826V13.978H191.633V12.5624H193.052V11.0581H191.633V5.17748L191.766 5.04443H200.014L204.626 12.3859L209.239 5.04443H217.399L217.532 5.17748V30.0811Z" fill="#B4B4B4"/>
<path d="M227.998 33.0001H218.418V24.5073H235.537V22.8265H218.418V21.5883H237.133V19.9075H218.418V18.4032H238.73V16.7223H218.418V15.6606H237.311V13.9798H218.552L218.418 13.8468V12.4755H235.537V10.7947H218.418V5.04443L230.433 5.13668C238.954 4.89808 244.99 13.4317 242.389 21.4783C240.863 26.2023 236.417 29.7476 231.411 30.0802C230.425 30.1458 229.251 29.9657 228.302 30.0757C228.173 30.0908 228.075 30.0855 227.996 30.2132V33.0001H227.998Z" fill="#B4B4B4"/>
<path d="M188.973 11.0605H166V5.17717L166.306 5.03969C170.146 5.15145 174.009 4.90753 177.845 5.03969C181.864 5.17895 185.179 6.27968 187.865 9.377C188.282 9.85685 188.736 10.4724 188.973 11.0596V11.0605Z" fill="#B4B4B4"/>
<path d="M188.795 24.4194C188.858 24.4762 188.49 24.9729 188.424 25.0669C186.454 27.8831 182.701 29.8761 179.264 30.0854L166 30.0819V24.4203H188.795V24.4194Z" fill="#B4B4B4"/>
<path d="M190.927 15.4841H166V16.9884H190.927V15.4841Z" fill="#B4B4B4"/>
<path d="M190.931 18.4917H166V19.996H190.931V18.4917Z" fill="#B4B4B4"/>
<path d="M189.903 21.4109C189.949 21.4162 190.369 21.4943 190.301 21.6291L189.726 22.9152H166V21.4109H189.903Z" fill="#B4B4B4"/>
<path d="M189.948 12.5642C190.104 13.0325 190.366 13.4707 190.391 13.9798H166V12.5642H189.948Z" fill="#B4B4B4"/>
</g>
<g clip-path="url(#clip3_51_497)">
<path d="M383.595 0V6.50244C379.412 6.65692 375.755 9.69675 374.789 13.7303C373.188 20.4206 378.96 26.4913 385.759 25.3042C390.081 24.5499 393.38 20.8046 393.591 16.4449H400.096C400.03 19.0023 399.321 21.5345 398.07 23.7577C397.85 24.1497 397.591 24.5201 397.375 24.9149L400.096 31.9431C394.664 31.8085 389.143 32.1229 383.722 31.9431C377.03 31.7209 371.163 27.597 368.927 21.2987C365.336 11.1873 372.617 0.504079 383.297 0.0334246L383.374 0.000903368H383.596L383.595 0Z" fill="#B4B4B4"/>
<path d="M447.756 31.9431L447.738 28.1218C447.778 28.0631 448.489 28.1002 448.628 28.092C449.163 28.0613 449.858 27.9674 450.348 27.7506C450.891 27.5103 451.311 27.0532 451.525 26.5039L445.567 13.7944H449.676L454.039 22.6637L458.323 13.7944H462.448L462.317 14.1215C460.198 18.3573 458.353 22.7378 456.224 26.9682C455.686 28.0378 454.994 29.2538 454.103 30.0668C452.525 31.505 450.3 31.9133 448.214 31.9115L448.137 31.944H447.757L447.756 31.9431Z" fill="#B4B4B4"/>
<path d="M444.139 17.5496H440.109C440.132 16.7231 438.98 16.5713 438.349 16.5379C436.653 16.4493 434.88 16.6083 433.175 16.5379C432.685 16.5821 432.101 16.6743 431.963 17.2262C431.825 17.7782 432.067 18.1052 432.614 18.2028C433.639 18.3862 435.027 18.2823 436.096 18.3058C437.797 18.3428 440 18.2479 441.627 18.6436C443.925 19.2037 444.352 20.6473 444.236 22.837C444.097 25.4568 442.159 26.3593 439.778 26.5138C437.284 26.4207 434.706 26.6321 432.222 26.5138C431.252 26.4677 430.014 26.25 429.256 25.6131C428.385 24.8805 428.103 23.8335 428.114 22.725H431.922C431.868 23.3917 432.448 23.6564 433.02 23.7314C434.795 23.7314 436.605 23.8524 438.38 23.7684C439.216 23.7287 440.124 23.5706 439.942 22.4965C439.788 21.5913 438.307 21.7358 437.648 21.7169C436.988 21.6979 436.311 21.6654 435.651 21.6509C434.063 21.6175 432.219 21.7431 430.678 21.4215C428.354 20.9364 428.024 19.2977 428.144 17.1847C428.303 14.4032 430.402 13.8639 432.795 13.7627C434.947 13.6715 437.274 13.6814 439.426 13.7609C440.852 13.8133 442.619 13.8684 443.53 15.1404C444.016 15.8197 444.156 16.7294 444.139 17.5487V17.5496Z" fill="#B4B4B4"/>
<path d="M479.9 17.5496H475.87C475.879 16.7176 474.748 16.5713 474.111 16.5379C472.414 16.4493 470.641 16.6083 468.936 16.5379C468.367 16.574 467.727 16.7348 467.687 17.4114C467.647 18.088 468.082 18.1793 468.62 18.2425C469.629 18.3618 470.826 18.2823 471.857 18.3049C473.579 18.3419 475.822 18.2452 477.463 18.6626C479.877 19.2769 480.115 20.9255 479.965 23.1523C479.806 25.5119 477.627 26.4117 475.538 26.5138C473.044 26.4207 470.467 26.6321 467.983 26.5138C467.15 26.474 466.133 26.3033 465.408 25.8868C464.269 25.231 463.838 23.9907 463.875 22.725H467.635L467.678 22.7774C467.689 22.8461 467.675 22.9174 467.69 22.9861C467.835 23.6465 468.661 23.7413 469.22 23.7684C470.723 23.8407 472.605 23.8362 474.11 23.7684C474.684 23.7422 475.568 23.6844 475.697 22.9798C475.954 21.5723 474.303 21.7431 473.409 21.7169C472.154 21.6798 470.891 21.65 469.636 21.6193C467.653 21.5714 464.726 21.8235 464.05 19.4115C463.812 18.5632 463.839 17.0103 464.082 16.1603C464.656 14.1439 466.745 13.8395 468.557 13.7627C470.709 13.6715 473.036 13.6814 475.188 13.7609C476.244 13.7998 477.403 13.8305 478.355 14.3355C479.566 14.9777 479.931 16.2533 479.9 17.5487V17.5496Z" fill="#B4B4B4"/>
<path d="M430.546 29.9096C430.546 30.9006 429.739 31.7037 428.742 31.7037C427.745 31.7037 426.938 30.9006 426.938 29.9096C426.938 28.9186 427.745 28.1155 428.742 28.1155C429.739 28.1155 430.546 28.9186 430.546 29.9096ZM428.647 28.7641C427.244 28.8617 427.326 31.1517 428.828 31.0586C430.239 30.971 430.161 28.6584 428.647 28.7641Z" fill="#B4B4B4"/>
<path d="M446.233 28.1235V28.755H444.345L444.297 28.802V29.5283L444.345 29.5752H445.757V30.2067H444.297V31.0116L444.345 31.0595H446.233V31.69H443.6V28.1235H446.233Z" fill="#B4B4B4"/>
<path d="M404.215 31.5378C403.544 31.7699 402.813 31.7708 402.238 31.3119C401.153 30.4447 401.465 28.5955 402.824 28.2035C404.638 27.6795 405.86 29.6687 404.76 31.1078L405.046 31.4863L404.49 31.9109L404.216 31.5378H404.215ZM404.347 30.5233C404.78 29.6118 404.141 28.5377 403.077 28.8024C401.884 29.0996 402.049 31.1394 403.474 31.0599C403.947 31.0337 403.658 30.8512 403.491 30.6344L404.045 30.2089C404.096 30.2523 404.285 30.5694 404.347 30.5242V30.5233Z" fill="#B4B4B4"/>
<path d="M412.979 31.6903H412.265L412.04 31.1519L410.399 31.1591L410.14 31.6903H409.426L410.853 28.1383C410.972 28.1274 411.513 28.0904 411.568 28.1554L412.98 31.6903H412.979ZM410.662 30.4599H411.725L411.76 30.3949L411.202 29.0714L410.662 30.4599Z" fill="#B4B4B4"/>
<path d="M406.379 28.1235V30.3801C406.379 30.419 406.47 30.6241 406.499 30.6701C406.773 31.1065 407.637 31.1119 407.946 30.709C407.983 30.6611 408.092 30.4542 408.092 30.4118V28.1235H408.79V30.5699C408.79 31.1607 407.968 31.644 407.441 31.69C406.736 31.7515 405.68 31.3269 405.68 30.5066V28.1235H406.379Z" fill="#B4B4B4"/>
<path d="M433.604 28.1235V28.755H431.843L431.795 28.802V29.5752H433.128V30.2067H431.795V31.69H431.097V28.1235H433.604Z" fill="#B4B4B4"/>
<path d="M443.06 28.1235V28.755H441.251V29.5752H442.584V30.2067H441.251V31.69H440.553V28.1235H443.06Z" fill="#B4B4B4"/>
<path d="M421.165 28.1235V28.755H419.991V31.69H419.293V28.802L419.246 28.755H418.087V28.1235H421.165Z" fill="#B4B4B4"/>
<path d="M424.053 28.1235H424.846L423.545 29.9068V31.69H422.879V29.9384L421.546 28.1235H422.355L423.212 29.2907L424.053 28.1235Z" fill="#B4B4B4"/>
<path d="M436.555 28.1235V31.0595H438.49V31.69H435.857V28.1235H436.555Z" fill="#B4B4B4"/>
<path d="M414.248 28.1235V31.0116L414.295 31.0595H416.183V31.69H413.582V28.1235H414.248Z" fill="#B4B4B4"/>
<path d="M417.516 28.1235H416.818V31.69H417.516V28.1235Z" fill="#B4B4B4"/>
<path d="M439.791 28.1235H439.125V31.69H439.791V28.1235Z" fill="#B4B4B4"/>
<path d="M408.942 13.7403C411.128 13.6762 414.611 13.5723 416.522 14.6726C418.823 15.9969 418.762 19.0774 418.66 21.4181C418.521 24.6033 417.188 26.3378 413.883 26.514C411.699 26.4281 409.425 26.6296 407.252 26.514C404.962 26.392 403.28 25.4841 402.651 23.2004C402.23 21.6719 402.25 18.5697 402.676 17.0385C403.478 14.1577 406.36 13.8162 408.942 13.7403ZM409.196 16.9915C407.291 17.0963 406.257 17.6212 406.154 19.6484C406.065 21.4352 406.331 22.802 408.307 23.1597C409.403 23.3585 411.974 23.3648 413.041 23.0902C414.496 22.7162 414.841 21.7351 414.883 20.3458C414.918 19.2129 414.832 17.9491 413.698 17.3881C412.655 16.8714 410.379 16.9274 409.196 16.9925V16.9915Z" fill="#B4B4B4"/>
<path d="M425.481 8.64893H421.197V26.5139H425.481V8.64893Z" fill="#B4B4B4"/>
<path d="M384.673 -9.62667e-05C387.483 0.137216 390.281 0.993608 392.654 2.4932C397.098 5.30087 399.947 10.1962 400.095 15.4665H397.937C397.829 10.8999 395.271 6.63243 391.41 4.2367C389.349 2.95753 386.984 2.24477 384.546 2.14631V-9.62667e-05C384.588 0.000807101 384.631 -0.001903 384.673 -9.62667e-05Z" fill="#B4B4B4"/>
<path d="M396.827 15.4664H394.669C394.519 10.0995 389.924 5.5854 384.546 5.3975V3.28271C387.163 3.34324 389.761 4.2972 391.827 5.87267C394.817 8.15096 396.698 11.6976 396.826 15.4664H396.827Z" fill="#B4B4B4"/>
<path d="M393.559 15.4664H391.449C391.418 15.4465 391.407 15.423 391.401 15.3878C391.376 15.2496 391.384 15.0517 391.359 14.8928C390.826 11.4771 388.025 8.88084 384.546 8.64958V6.50317C384.844 6.54925 385.146 6.56099 385.445 6.60345C389.886 7.2349 393.359 10.9974 393.558 15.4673L393.559 15.4664Z" fill="#B4B4B4"/>
<path d="M384.064 18.6571C385.556 18.6571 386.766 17.4535 386.766 15.9687C386.766 14.4839 385.556 13.2803 384.064 13.2803C382.571 13.2803 381.361 14.4839 381.361 15.9687C381.361 17.4535 382.571 18.6571 384.064 18.6571Z" fill="#B4B4B4"/>
<path d="M390.29 15.4666H388.132C387.946 13.6219 386.388 12.116 384.546 11.9001V9.75366C384.851 9.80696 385.158 9.83497 385.461 9.90181C388.084 10.48 390.106 12.7935 390.289 15.4666H390.29Z" fill="#B4B4B4"/>
</g>
<defs>
<clipPath id="clip0_51_497">
<rect width="134" height="23" fill="white" transform="translate(0 9)"/>
</clipPath>
<clipPath id="clip1_51_497">
<rect width="61" height="24" fill="white" transform="translate(275 7)"/>
</clipPath>
<clipPath id="clip2_51_497">
<rect width="77" height="28" fill="white" transform="translate(166 5)"/>
</clipPath>
<clipPath id="clip3_51_497">
<rect width="112" height="32" fill="white" transform="translate(368)"/>
</clipPath>
</defs>
</svg>
